<?xml version="1.0" encoding="UTF-8"?><svg xmlns="http://www.w3.org/2000/svg" xmlns:xlink="http://www.w3.org/1999/xlink" viewBox="0 0 24 24" version="1.1"><path d="M20.293 11.793l-8.086-8.086a1 1 0 0 0-1.414 0L9.102 5.395l1.753 1.753c.196-.09.415-.148.645-.148A1.5 1.5 0 0 1 13 8.5c0 .23-.059.445-.152.645l2.007 2.003c.196-.09.415-.148.645-.148a1.5 1.5 0 1 1-1.5 1.5c0-.23.055-.445.148-.645l-2.007-2.003c-.043.02-.094.039-.141.054v5.188c.578.207 1 .754 1 1.406a1.5 1.5 0 0 1-3 0c0-.652.418-1.203 1-1.406V9.906c-.582-.207-1-.754-1-1.406 0-.23.055-.445.148-.645l-1.753-1.75-5.688 5.688a1 1 0 0 0 0 1.414l8.086 8.086a1 1 0 0 0 1.414 0l8.086-8.086a1 1 0 0 0 0-1.414z" id="surface1"/><metadata><rdf:RDF xmlns:rdf="http://www.w3.org/1999/02/22-rdf-syntax-ns#" xmlns:rdfs="http://www.w3.org/2000/01/rdf-schema#" xmlns:dc="http://purl.org/dc/elements/1.1/"><rdf:Description about="https://iconscout.com/legal#licenses" dc:title="git" dc:description="git" dc:publisher="Iconscout" dc:date="2018-06-22" dc:format="image/svg+xml" dc:language="en"><dc:creator><rdf:Bag><rdf:li>Icons8</rdf:li></rdf:Bag></dc:creator></rdf:Description></rdf:RDF></metadata></svg>